<?xml version="1.0" encoding="utf-8"?>
<!-- Generator: Adobe Illustrator 19.2.0, SVG Export Plug-In . SVG Version: 6.00 Build 0)  -->
<svg version="1.1" id="Layer_1" xmlns="http://www.w3.org/2000/svg" xmlns:xlink="http://www.w3.org/1999/xlink" x="0px" y="0px"
	 viewBox="0 0 800 800" style="enable-background:new 0 0 800 800;" xml:space="preserve">
<style type="text/css">
	.st0{fill:#10C2EC;}
	.st1{fill:#8FAEDB;}
	.st2{fill:#F89838;}
</style>
<g>
	<path class="st0" d="M348.3,33h52.2c28.3,0,51.2,22.9,51.2,51.2V491H348.3V33z"/>
	<path d="M474,513.3H326V10.7h74.5c40.5,0,73.5,33,73.5,73.5V513.3z M370.6,468.7h58.7V84.2c0-15.9-12.9-28.8-28.8-28.8h-29.9V468.7
		z"/>
	<path class="st1" d="M502.8,105H555v350.8c0,19.4-15.7,35.2-35.2,35.2h-68.2V156.2C451.7,127.9,474.6,105,502.8,105z"/>
	<path d="M519.9,513.3h-90.5V156.2c0-40.5,33-73.5,73.5-73.5h74.5v373.1C577.3,487.5,551.5,513.3,519.9,513.3z M474,468.7h45.9
		c7.1,0,12.8-5.8,12.8-12.8V127.4h-29.9c-15.9,0-28.8,12.9-28.8,28.8V468.7z"/>
	<path class="st2" d="M245,175.5h52.2c28.3,0,51.2,22.9,51.2,51.2V491h-68.2c-19.4,0-35.2-15.7-35.2-35.2V175.5z"/>
	<path d="M370.6,513.3h-90.5c-31.7,0-57.5-25.8-57.5-57.5V153.2h74.5c40.5,0,73.5,33,73.5,73.5V513.3z M267.3,197.8v258
		c0,7.1,5.8,12.8,12.9,12.8H326v-242c0-15.9-12.9-28.8-28.8-28.8H267.3z"/>
	<g>
		<path d="M114.9,582.8L152.1,738h-32.7l-5.8-26.1H82.6L77,738H46.5l36-155.2H114.9z M101.3,646.2l-3.5-23.5h-0.4l-3.3,23.5
			l-6.6,41.4h21.6L101.3,646.2z"/>
		<path d="M191.9,650.1h0.4c3.9-9.9,12.8-18.1,24.1-18.1c21.4,0,19.6,23.9,19.6,38.9V738h-29v-57c0-5.4,2.1-19.8-7.2-19.8
			c-6.6,0-7.8,6.8-7.8,11.9V738h-29v-104h29V650.1z"/>
		<path d="M324.3,693.8h-45.9c0.2,7.6-0.2,24.1,10.9,24.1c7.4,0,9.3-5.8,9.3-11.9h24.7c-1.2,9.5-4.1,18.1-9.5,24.3
			c-5.1,6.2-12.8,9.9-23.5,9.9c-29.4,0-39.9-26.1-39.9-51.9c0-24.9,9.1-56.2,39.3-56.2c19.1,0,36.9,17.1,35.2,49.8L324.3,693.8z
			 M299.8,673.4c0-6.8-1.4-19.1-10.5-19.1c-8.9,0-10.7,11.9-10.7,18.5v3.1h21.2V673.4z"/>
		<path d="M392.4,736.4c-5.4,2.5-10.7,3.7-16.7,3.7c-28.2,0-38.1-29.6-38.1-53.3c0-26.1,10.3-54.8,40.4-54.8c5.1,0,9.7,1,14.4,3.1
			v25.5c-2.7-2.5-4.9-3.3-8.4-3.3c-14.2,0-17.3,17.1-17.3,27.8c0,11.1,2.3,27.8,16.9,27.8c3.3,0,6.2-1.2,8.9-3.1V736.4z"/>
		<path d="M452.3,726.3h-0.4c-3.9,7.8-9.9,13.8-19.1,13.8c-23.5,0-28.2-37.5-28.2-54.2c0-17.9,3.5-53.9,27.8-53.9
			c9.7,0,16.3,6.4,19.6,14.8h0.4v-74.9h29V738h-29V726.3z M454.4,685.5c0-5.8-0.6-27.8-10.5-27.8c-9.7,0-10.3,21.8-10.3,27.8
			c0,6.6,0.4,28,10.7,28C453.6,713.5,454.4,691.1,454.4,685.5z"/>
		<path d="M574.9,686.2c0,26.6-8.4,53.9-39.5,53.9c-31.1,0-39.5-27.4-39.5-53.9c0-26.6,8.4-54.1,39.5-54.1
			C566.4,632,574.9,659.6,574.9,686.2z M524.8,686.2c0,6,0.4,28,10.5,28s10.5-22,10.5-28c0-6-0.4-28-10.5-28
			S524.8,680.2,524.8,686.2z"/>
		<path d="M618.5,646.8h0.4c3.3-8.4,9.9-14.8,19.4-14.8c24.5,0,27.8,36,27.8,53.9c0,16.7-4.3,54.2-28,54.2c-9.5,0-15.4-6-19.1-13.8
			h-0.4v63h-29V634.1h29V646.8z M637,685.5c0-6-0.8-27.8-10.3-27.8c-9.9,0-10.3,22-10.3,27.8c0,5.6,0.6,28,10.1,28
			C636.8,713.5,637,692.1,637,685.5z"/>
		<path d="M752.8,693.8h-45.9c0.2,7.6-0.2,24.1,10.9,24.1c7.4,0,9.3-5.8,9.3-11.9h24.7c-1.2,9.5-4.1,18.1-9.5,24.3
			c-5.1,6.2-12.8,9.9-23.5,9.9c-29.4,0-39.9-26.1-39.9-51.9c0-24.9,9.1-56.2,39.3-56.2c19.1,0,36.9,17.1,35.2,49.8L752.8,693.8z
			 M728.3,673.4c0-6.8-1.4-19.1-10.5-19.1c-8.9,0-10.7,11.9-10.7,18.5v3.1h21.2V673.4z"/>
	</g>
</g>
</svg>
