<?xml version="1.0" encoding="utf-8"?>
<!-- Generator: Adobe Illustrator 19.2.0, SVG Export Plug-In . SVG Version: 6.00 Build 0)  -->
<svg version="1.1" id="Layer_1" xmlns="http://www.w3.org/2000/svg" xmlns:xlink="http://www.w3.org/1999/xlink" x="0px" y="0px"
	 viewBox="0 0 800 800" style="enable-background:new 0 0 800 800;" xml:space="preserve">
<style type="text/css">
	.st0{fill:#231F20;}
	.st1{fill:#0FC1EB;}
	.st2{fill:#8DADDA;}
	.st3{fill:#F79838;}
</style>
<g>
	<g>
		<path class="st0" d="M285.4,344.3l29.5,122.9H289l-4.6-20.7h-24.6l-4.4,20.7h-24.1l28.5-122.9H285.4z M274.7,394.5l-2.8-18.6h-0.3
			l-2.6,18.6l-5.2,32.8h17.1L274.7,394.5z"/>
		<path class="st0" d="M346.4,397.6h0.3c3.1-7.8,10.1-14.3,19.1-14.3c17,0,15.5,18.9,15.5,30.8v53.1h-23v-45.2
			c0-4.2,1.6-15.6-5.7-15.6c-5.2,0-6.2,5.4-6.2,9.5v51.3h-23v-82.3h23V397.6z"/>
		<path class="st0" d="M451.2,432.2h-36.3c0.2,6-0.2,19.1,8.6,19.1c5.9,0,7.3-4.6,7.3-9.5h19.6c-1,7.5-3.3,14.3-7.5,19.2
			c-4.1,4.9-10.1,7.8-18.6,7.8c-23.3,0-31.6-20.7-31.6-41.1c0-19.7,7.2-44.5,31.1-44.5c15.2,0,29.2,13.5,27.9,39.4L451.2,432.2z
			 M431.8,416c0-5.4-1.1-15.2-8.3-15.2c-7,0-8.5,9.5-8.5,14.7v2.4h16.8V416z"/>
		<path class="st0" d="M505.2,465.9c-4.2,2-8.5,2.9-13.2,2.9c-22.3,0-30.2-23.5-30.2-42.2c0-20.7,8.2-43.4,31.9-43.4
			c4.1,0,7.7,0.8,11.4,2.4v20.2c-2.1-2-3.9-2.6-6.7-2.6c-11.2,0-13.7,13.5-13.7,22c0,8.8,1.8,22,13.4,22c2.6,0,4.9-1,7-2.4V465.9z"
			/>
		<path class="st0" d="M552.6,457.9h-0.3c-3.1,6.2-7.8,10.9-15.2,10.9c-18.6,0-22.3-29.7-22.3-42.9c0-14.2,2.8-42.7,22-42.7
			c7.7,0,12.9,5.1,15.5,11.7h0.3v-59.3h23v131.5h-23V457.9z M554.2,425.6c0-4.6-0.5-22-8.3-22c-7.7,0-8.2,17.3-8.2,22
			c0,5.2,0.3,22.2,8.5,22.2C553.6,447.8,554.2,430,554.2,425.6z"/>
		<path class="st0" d="M649.6,426.1c0,21-6.7,42.7-31.3,42.7S587,447.2,587,426.1c0-21,6.7-42.9,31.3-42.9S649.6,405.1,649.6,426.1z
			 M610,426.1c0,4.7,0.3,22.2,8.3,22.2s8.3-17.4,8.3-22.2c0-4.7-0.3-22.2-8.3-22.2S610,421.4,610,426.1z"/>
		<path class="st0" d="M684.1,395h0.3c2.6-6.7,7.8-11.7,15.3-11.7c19.4,0,22,28.5,22,42.7c0,13.2-3.4,42.9-22.2,42.9
			c-7.5,0-12.2-4.7-15.2-10.9h-0.3v49.9h-23V384.9h23V395z M698.8,425.6c0-4.7-0.7-22-8.2-22c-7.8,0-8.2,17.4-8.2,22
			c0,4.4,0.5,22.2,8,22.2C698.7,447.8,698.8,430.9,698.8,425.6z"/>
		<path class="st0" d="M790.4,432.2h-36.3c0.2,6-0.2,19.1,8.6,19.1c5.9,0,7.3-4.6,7.3-9.5h19.6c-1,7.5-3.3,14.3-7.5,19.2
			c-4.1,4.9-10.1,7.8-18.6,7.8c-23.3,0-31.6-20.7-31.6-41.1c0-19.7,7.2-44.5,31.1-44.5c15.2,0,29.2,13.5,27.9,39.4L790.4,432.2z
			 M771,416c0-5.4-1.1-15.2-8.3-15.2c-7,0-8.5,9.5-8.5,14.7v2.4H771V416z"/>
	</g>
	<g>
		<g>
			<path class="st1" d="M67.9,292.7h24.4c13.2,0,24,10.7,24,24v190.6H67.9V292.7z"/>
			<path class="st0" d="M126.7,517.7H57.4V282.3h34.9c19,0,34.4,15.4,34.4,34.4V517.7z M78.3,496.8h27.5V316.7
				c0-7.5-6.1-13.5-13.5-13.5h-14V496.8z"/>
		</g>
		<g>
			<path class="st2" d="M140.2,326.5h24.4v164.3c0,9.1-7.4,16.5-16.5,16.5h-31.9V350.4C116.3,337.2,127,326.5,140.2,326.5z"/>
			<path class="st0" d="M148.2,517.7h-42.4V350.4c0-19,15.4-34.4,34.4-34.4h34.9v174.8C175.2,505.6,163.1,517.7,148.2,517.7z
				 M126.7,496.8h21.5c3.3,0,6-2.7,6-6V336.9h-14c-7.5,0-13.5,6.1-13.5,13.5V496.8z"/>
		</g>
		<g>
			<path class="st3" d="M19.5,359.5h24.4c13.2,0,24,10.7,24,24v123.8H35.9c-9.1,0-16.5-7.4-16.5-16.5V359.5z"/>
			<path class="st0" d="M78.3,517.7H35.9C21.1,517.7,9,505.6,9,490.8V349h34.9c19,0,34.4,15.4,34.4,34.4V517.7z M29.9,369.9v120.9
				c0,3.3,2.7,6,6,6h21.5V383.5c0-7.4-6.1-13.5-13.5-13.5H29.9z"/>
		</g>
	</g>
</g>
</svg>
